<svg version="1.2" xmlns="http://www.w3.org/2000/svg" viewBox="0 0 1280 800" width="1280" height="800"><defs><linearGradient id="P" gradientUnits="userSpaceOnUse"/><linearGradient id="g1" x2="1" href="#P" gradientTransform="matrix(0,732,-1212,0,640,34)"><stop stop-color="#102039"/><stop offset="1" stop-color="#0c1628"/></linearGradient></defs><style>tspan{white-space:pre}.a{fill:#0b1423}.b{opacity:.18;fill:url(#g1);stroke:#9dc2ef}.c{fill:#101d32;stroke:#2c496d}.d{font-size: 24px;fill: #9de0b8;font-family: "Arial"}.e{fill:#16263e;stroke:#284564}.f{font-size: 28px;fill: #f1f6fc;font-family: "Arial"}.g{fill:#48688f}.h{fill:#162d49;stroke:#2d4b71}.i{font-size: 18px;fill: #d8e5f6;font-family: "Arial"}.j{fill:none;stroke:#9de0b8;stroke-linecap:round;stroke-width:6}.k{fill:#1c3350;stroke:#355781}.l{fill:#1e3553;stroke:#4a78aa}.m{font-size: 17px;fill: #f4f8fd;font-family: "Arial"}.n{fill:#9de0b8}.o{font-size: 21px;fill: #07111f;font-family: "Arial"}.p{fill:#101c30;stroke:#2c496d}.q{fill:#14263e;stroke:#284564}.r{font-size: 20px;fill: #48688f;font-family: "Arial"}.s{font-size: 24px;fill: #f1f6fc;font-family: "Arial"}.t{font-size: 22px;fill: #f1f6fc;font-family: "Arial"}.u{fill:#1e3553;stroke:#3a618d}.v{font-size: 20px;fill: #7bb5c8;font-family: "Arial"}.w{font-size: 22px;fill: #f4f8fd;font-family: "Arial"}.x{font-size: 26px;fill: #dce7f6;font-family: "Arial"}</style><path fill-rule="evenodd" class="a" d="m36 0h1208c19.9 0 36 16.1 36 36v728c0 19.9-16.1 36-36 36h-1208c-19.9 0-36-16.1-36-36v-728c0-19.9 16.1-36 36-36z"/><path fill-rule="evenodd" class="b" d="m62 34h1156c15.5 0 28 12.5 28 28v676c0 15.5-12.5 28-28 28h-1156c-15.5 0-28-12.5-28-28v-676c0-15.5 12.5-28 28-28z"/><path fill-rule="evenodd" class="c" d="m110 114h658c13.3 0 24 10.7 24 24v472c0 13.3-10.7 24-24 24h-658c-13.3 0-24-10.7-24-24v-472c0-13.3 10.7-24 24-24z"/><text transform="translate(120,152)"><tspan x="0" y="0" class="d">Runtime Panel
</tspan></text><path fill-rule="evenodd" class="e" d="m142 196h594c12.2 0 22 9.8 22 22v144c0 12.2-9.8 22-22 22h-594c-12.2 0-22-9.8-22-22v-144c0-12.2 9.8-22 22-22z"/><text transform="translate(156,242)"><tspan x="0" y="0" class="f">Laundry_unit
</tspan></text><path fill-rule="evenodd" class="g" d="m164 274h154c4.4 0 8 3.6 8 8 0 4.4-3.6 8-8 8h-154c-4.4 0-8-3.6-8-8 0-4.4 3.6-8 8-8z"/><path fill-rule="evenodd" class="h" d="m176 316h68c11 0 20 9 20 20 0 11-9 20-20 20h-68c-11 0-20-9-20-20 0-11 9-20 20-20z"/><text transform="translate(190,342)"><tspan x="0" y="0" class="i">empty
</tspan></text><path fill-rule="evenodd" class="j" d="m274 337h54"/><path fill-rule="evenodd" class="k" d="m354 316h86c11 0 20 9 20 20 0 11-9 20-20 20h-86c-11 0-20-9-20-20 0-11 9-20 20-20z"/><text transform="translate(368,342)"><tspan x="0" y="0" class="i">loaded
</tspan></text><path fill-rule="evenodd" class="j" d="m466 337h54"/><path fill-rule="evenodd" class="l" d="m546 316h164c11 0 20 9 20 20 0 11-9 20-20 20h-164c-11 0-20-9-20-20 0-11 9-20 20-20z"/><text transform="translate(548,342)"><tspan x="0" y="0" class="m">clean_cycle_done
</tspan></text><path fill-rule="evenodd" class="n" d="m176 418h130c11 0 20 9 20 20v16c0 11-9 20-20 20h-130c-11 0-20-9-20-20v-16c0-11 9-20 20-20z"/><text transform="translate(189,454)"><tspan x="0" y="0" class="o">Run Cycle
</tspan></text><path fill-rule="evenodd" class="p" d="m864 114h306c13.3 0 24 10.7 24 24v472c0 13.3-10.7 24-24 24h-306c-13.3 0-24-10.7-24-24v-472c0-13.3 10.7-24 24-24z"/><text transform="translate(874,152)"><tspan x="0" y="0" class="d">Log
</tspan></text><path fill-rule="evenodd" class="q" d="m892 204h258c9.9 0 18 8.1 18 18v60c0 9.9-8.1 18-18 18h-258c-9.9 0-18-8.1-18-18v-60c0-9.9 8.1-18 18-18z"/><text transform="translate(904,242)"><tspan x="0" y="0" class="r">trigger
</tspan></text><text transform="translate(904,274)"><tspan x="0" y="0" class="s">run_cycle
</tspan></text><path fill-rule="evenodd" class="q" d="m892 326h258c9.9 0 18 8.1 18 18v60c0 9.9-8.1 18-18 18h-258c-9.9 0-18-8.1-18-18v-60c0-9.9 8.1-18 18-18z"/><text transform="translate(904,364)"><tspan x="0" y="0" class="r">state
</tspan></text><text transform="translate(904,396)"><tspan x="0" y="0" class="t">clean_cycle_done
</tspan></text><path fill-rule="evenodd" class="u" d="m892 448h258c9.9 0 18 8.1 18 18v60c0 9.9-8.1 18-18 18h-258c-9.9 0-18-8.1-18-18v-60c0-9.9 8.1-18 18-18z"/><text transform="translate(904,486)"><tspan x="0" y="0" class="v">event
</tspan></text><text transform="translate(904,518)"><tspan x="0" y="0" class="w">identity_changed
</tspan></text><text transform="translate(86,706)"><tspan x="0" y="0" class="x">Playable interactions with logs you can inspect
</tspan></text></svg>