<svg version="1.2" xmlns="http://www.w3.org/2000/svg" viewBox="0 0 1280 800" width="1280" height="800"><defs><linearGradient id="P" gradientUnits="userSpaceOnUse"/><linearGradient id="g1" x2="1" href="#P" gradientTransform="matrix(0,732,-1212,0,640,34)"><stop stop-color="#102039"/><stop offset="1" stop-color="#0c1628"/></linearGradient></defs><style>tspan{white-space:pre}.a{fill:#0b1423}.b{opacity:.18;fill:url(#g1);stroke:#9dc2ef}.c{fill:#101c30;stroke:#2b486e}.d{fill:#132540}.e{fill:#9de0b8}.f{fill:#4d6d97}.g{font-size: 24px;fill: #dce7f6;font-family: "Arial"}.h{fill:#14263e;stroke:#29476b}.i{font-size: 24px;fill: #9de0b8;font-family: "Arial"}.j{fill:#48688f}.k{fill:#36557d}.l{fill:#132238;stroke:#29476b}.m{font-size: 22px;fill: #dce7f6;font-family: "Arial"}.n{fill:#182b46}.o{font-size: 20px;fill: #07111f;font-family: "Arial"}.p{fill:#1c304e;stroke:#355781}.q{font-size: 20px;fill: #f1f6fc;font-family: "Arial"}.r{fill:#172944}.s{font-size: 26px;fill: #eaf1fa;font-family: "Arial"}.t{fill:#1e3553;stroke:#3a618d}.u{font-size: 22px;fill: #f4f8fd;font-family: "Arial"}.v{font-size: 26px;fill: #dce7f6;font-family: "Arial"}</style><path fill-rule="evenodd" class="a" d="m36 0h1208c19.9 0 36 16.1 36 36v728c0 19.9-16.1 36-36 36h-1208c-19.9 0-36-16.1-36-36v-728c0-19.9 16.1-36 36-36z"/><path fill-rule="evenodd" class="b" d="m62 34h1156c15.5 0 28 12.5 28 28v676c0 15.5-12.5 28-28 28h-1156c-15.5 0-28-12.5-28-28v-676c0-15.5 12.5-28 28-28z"/><path fill-rule="evenodd" class="c" d="m112 106h1056c14.4 0 26 11.6 26 26v496c0 14.4-11.6 26-26 26h-1056c-14.4 0-26-11.6-26-26v-496c0-14.4 11.6-26 26-26z"/><path fill-rule="evenodd" class="d" d="m112 106h1056c14.4 0 26 11.6 26 26v14c0 14.4-11.6 26-26 26h-1056c-14.4 0-26-11.6-26-26v-14c0-14.4 11.6-26 26-26z"/><path fill-rule="evenodd" class="e" d="m128 148c-5 0-9-4-9-9 0-5 4-9 9-9 5 0 9 4 9 9 0 5-4 9-9 9z"/><path fill-rule="evenodd" class="f" d="m158 148c-5 0-9-4-9-9 0-5 4-9 9-9 5 0 9 4 9 9 0 5-4 9-9 9z"/><path fill-rule="evenodd" class="f" d="m188 148c-5 0-9-4-9-9 0-5 4-9 9-9 5 0 9 4 9 9 0 5-4 9-9 9z"/><text transform="translate(236,147)"><tspan x="0" y="0" class="g">Pack Import Tool
</tspan></text><path fill-rule="evenodd" class="h" d="m138 204h240c11 0 20 9 20 20v360c0 11-9 20-20 20h-240c-11 0-20-9-20-20v-360c0-11 9-20 20-20z"/><text transform="translate(148,242)"><tspan x="0" y="0" class="i">Structured Data
</tspan></text><path fill-rule="evenodd" class="j" d="m156 278h154c4.4 0 8 3.6 8 8 0 4.4-3.6 8-8 8h-154c-4.4 0-8-3.6-8-8 0-4.4 3.6-8 8-8z"/><path fill-rule="evenodd" class="k" d="m154 308h184c3.3 0 6 2.7 6 6 0 3.3-2.7 6-6 6h-184c-3.3 0-6-2.7-6-6 0-3.3 2.7-6 6-6z"/><path fill-rule="evenodd" class="k" d="m154 334h142c3.3 0 6 2.7 6 6 0 3.3-2.7 6-6 6h-142c-3.3 0-6-2.7-6-6 0-3.3 2.7-6 6-6z"/><path fill-rule="evenodd" class="k" d="m154 360h198c3.3 0 6 2.7 6 6 0 3.3-2.7 6-6 6h-198c-3.3 0-6-2.7-6-6 0-3.3 2.7-6 6-6z"/><path fill-rule="evenodd" class="j" d="m156 404h126c4.4 0 8 3.6 8 8 0 4.4-3.6 8-8 8h-126c-4.4 0-8-3.6-8-8 0-4.4 3.6-8 8-8z"/><path fill-rule="evenodd" class="k" d="m154 434h156c3.3 0 6 2.7 6 6 0 3.3-2.7 6-6 6h-156c-3.3 0-6-2.7-6-6 0-3.3 2.7-6 6-6z"/><path fill-rule="evenodd" class="k" d="m154 460h126c3.3 0 6 2.7 6 6 0 3.3-2.7 6-6 6h-126c-3.3 0-6-2.7-6-6 0-3.3 2.7-6 6-6z"/><path fill-rule="evenodd" class="k" d="m154 486h174c3.3 0 6 2.7 6 6 0 3.3-2.7 6-6 6h-174c-3.3 0-6-2.7-6-6 0-3.3 2.7-6 6-6z"/><path fill-rule="evenodd" class="l" d="m458 204h380c11 0 20 9 20 20v360c0 11-9 20-20 20h-380c-11 0-20-9-20-20v-360c0-11 9-20 20-20z"/><text transform="translate(472,242)"><tspan x="0" y="0" class="m">Import Pipeline
</tspan></text><path fill-rule="evenodd" class="n" d="m490 292h316c9.9 0 18 15.9 18 35.4v165.2c0 19.5-8.1 35.4-18 35.4h-316c-9.9 0-18-15.9-18-35.4v-165.2c0-19.5 8.1-35.4 18-35.4z"/><path fill-rule="evenodd" class="e" d="m509 318h118c5 0 9 4 9 9 0 5-4 9-9 9h-118c-5 0-9-4-9-9 0-5 4-9 9-9z"/><path fill-rule="evenodd" class="j" d="m507 350h180c3.9 0 7 3.1 7 7 0 3.9-3.1 7-7 7h-180c-3.9 0-7-3.1-7-7 0-3.9 3.1-7 7-7z"/><path fill-rule="evenodd" class="k" d="m507 378h140c3.9 0 7 3.1 7 7 0 3.9-3.1 7-7 7h-140c-3.9 0-7-3.1-7-7 0-3.9 3.1-7 7-7z"/><path fill-rule="evenodd" class="j" d="m510 409h154c4.4 0 8 3.6 8 8 0 4.4-3.6 8-8 8h-154c-4.4 0-8-3.6-8-8 0-4.4 3.6-8 8-8z"/><path fill-rule="evenodd" class="k" d="m508 439h184c3.3 0 6 2.7 6 6 0 3.3-2.7 6-6 6h-184c-3.3 0-6-2.7-6-6 0-3.3 2.7-6 6-6z"/><path fill-rule="evenodd" class="k" d="m508 465h142c3.3 0 6 2.7 6 6 0 3.3-2.7 6-6 6h-142c-3.3 0-6-2.7-6-6 0-3.3 2.7-6 6-6z"/><path fill-rule="evenodd" class="k" d="m508 491h198c3.3 0 6 2.7 6 6 0 3.3-2.7 6-6 6h-198c-3.3 0-6-2.7-6-6 0-3.3 2.7-6 6-6z"/><path fill-rule="evenodd" class="e" d="m463 545h92c9.9 0 18 8.1 18 18v16c0 9.9-8.1 18-18 18h-92c-9.9 0-18-8.1-18-18v-16c0-9.9 8.1-18 18-18z"/><text transform="translate(472,578)"><tspan x="0" y="0" class="o">IMPORT
</tspan></text><path fill-rule="evenodd" class="p" d="m607 545h112c9.9 0 18 8.1 18 18v16c0 9.9-8.1 18-18 18h-112c-9.9 0-18-8.1-18-18v-16c0-9.9 8.1-18 18-18z"/><text transform="translate(615,579)"><tspan x="0" y="0" class="q">VALIDATE
</tspan></text><path fill-rule="evenodd" class="p" d="m771 545h64c9.9 0 18 8.1 18 18v16c0 9.9-8.1 18-18 18h-64c-9.9 0-18-8.1-18-18v-16c0-9.9 8.1-18 18-18z"/><text transform="translate(772,579)"><tspan x="0" y="0" class="q">BUILD
</tspan></text><path fill-rule="evenodd" class="h" d="m916 204h224c11 0 20 9 20 20v360c0 11-9 20-20 20h-224c-11 0-20-9-20-20v-360c0-11 9-20 20-20z"/><text transform="translate(928,242)"><tspan x="0" y="0" class="i">Status
</tspan></text><path fill-rule="evenodd" class="r" d="m946 284h176c9.9 0 18 8.1 18 18v36c0 9.9-8.1 18-18 18h-176c-9.9 0-18-8.1-18-18v-36c0-9.9 8.1-18 18-18z"/><path fill-rule="evenodd" class="e" d="m964 330c-5.5 0-10-4.5-10-10 0-5.5 4.5-10 10-10 5.5 0 10 4.5 10 10 0 5.5-4.5 10-10 10z"/><text transform="translate(992,328)"><tspan x="0" y="0" class="s">Valid
</tspan></text><path fill-rule="evenodd" class="r" d="m946 382h176c9.9 0 18 8.1 18 18v36c0 9.9-8.1 18-18 18h-176c-9.9 0-18-8.1-18-18v-36c0-9.9 8.1-18 18-18z"/><path fill-rule="evenodd" class="e" d="m964 428c-5.5 0-10-4.5-10-10 0-5.5 4.5-10 10-10 5.5 0 10 4.5 10 10 0 5.5-4.5 10-10 10z"/><text transform="translate(992,426)"><tspan x="0" y="0" class="s">Built
</tspan></text><path fill-rule="evenodd" class="t" d="m944.8 480h182.4c9.3 0 16.8 8.1 16.8 18v36c0 9.9-7.5 18-16.8 18h-182.4c-9.3 0-16.8-8.1-16.8-18v-36c0-9.9 7.5-18 16.8-18z"/><path fill-rule="evenodd" class="e" d="m964 526c-5.5 0-10-4.5-10-10 0-5.5 4.5-10 10-10 5.5 0 10 4.5 10 10 0 5.5-4.5 10-10 10z"/><text transform="translate(992,524)"><tspan x="0" y="0" class="u">Scene Ready
</tspan></text><text transform="translate(86,706)"><tspan x="0" y="0" class="v">Import, validate, build, ship the next iteration
</tspan></text></svg>