<svg width="1280" height="800" viewBox="0 0 1280 800" fill="none" xmlns="http://www.w3.org/2000/svg">
  <rect width="1280" height="800" rx="36" fill="#0C1628"/>
  <rect x="34" y="34" width="1212" height="732" rx="28" fill="url(#bg)"/>
  <rect x="74" y="86" width="380" height="560" rx="22" fill="#111F35" stroke="#2C4466"/>
  <text x="110" y="140" fill="#96E2B0" font-family="Manrope, Arial, sans-serif" font-size="28" font-weight="700">structured_data.json</text>
  <rect x="108" y="182" width="188" height="20" rx="10" fill="#27456B"/>
  <rect x="108" y="224" width="250" height="14" rx="7" fill="#3F5F88"/>
  <rect x="108" y="254" width="218" height="14" rx="7" fill="#3F5F88"/>
  <rect x="108" y="284" width="268" height="14" rx="7" fill="#3F5F88"/>
  <rect x="108" y="336" width="176" height="20" rx="10" fill="#27456B"/>
  <rect x="108" y="378" width="232" height="14" rx="7" fill="#3F5F88"/>
  <rect x="108" y="408" width="202" height="14" rx="7" fill="#3F5F88"/>
  <rect x="108" y="438" width="260" height="14" rx="7" fill="#3F5F88"/>
  <rect x="108" y="490" width="196" height="20" rx="10" fill="#27456B"/>
  <rect x="108" y="532" width="150" height="14" rx="7" fill="#3F5F88"/>
  <rect x="108" y="562" width="238" height="14" rx="7" fill="#3F5F88"/>
  <path d="M500 400H760" stroke="#96E2B0" stroke-width="12" stroke-linecap="round"/>
  <path d="M720 350L796 400L720 450" stroke="#96E2B0" stroke-width="12" stroke-linecap="round" stroke-linejoin="round"/>
  <rect x="828" y="86" width="374" height="560" rx="22" fill="#101C30" stroke="#35507A"/>
  <rect x="862" y="120" width="306" height="34" rx="12" fill="#172944"/>
  <circle cx="890" cy="137" r="7" fill="#96E2B0"/>
  <rect x="914" y="128" width="164" height="18" rx="9" fill="#45668F"/>
  <rect x="884" y="188" width="264" height="180" rx="18" fill="#16263F"/>
  <rect x="926" y="226" width="180" height="102" rx="16" fill="#22385B"/>
  <rect x="982" y="250" width="68" height="52" rx="10" fill="#96E2B0"/>
  <rect x="884" y="398" width="130" height="94" rx="16" fill="#22385B"/>
  <rect x="1032" y="398" width="116" height="94" rx="16" fill="#22385B"/>
  <rect x="884" y="516" width="264" height="88" rx="16" fill="#16263F"/>
  <rect x="914" y="544" width="172" height="18" rx="9" fill="#45668F"/>
  <rect x="914" y="572" width="120" height="14" rx="7" fill="#35507A"/>
  <text x="890" y="695" fill="#DDE8F7" font-family="Manrope, Arial, sans-serif" font-size="34" font-weight="700">Data becomes scene-ready content</text>
  <defs>
    <linearGradient id="bg" x1="640" y1="34" x2="640" y2="766" gradientUnits="userSpaceOnUse">
      <stop stop-color="#12233D"/>
      <stop offset="1" stop-color="#0D1829"/>
    </linearGradient>
  </defs>
</svg>
