<svg width="1280" height="800" viewBox="0 0 1280 800" fill="none" xmlns="http://www.w3.org/2000/svg">
  <rect width="1280" height="800" rx="36" fill="#0B1423"/>
  <rect x="34" y="34" width="1212" height="732" rx="28" fill="url(#panel)" stroke="rgba(157,194,239,0.18)"/>

  <rect x="88" y="118" width="420" height="510" rx="24" fill="#101D32" stroke="#29476B"/>
  <rect x="118" y="148" width="140" height="28" rx="14" fill="#16304D"/>
  <text x="144" y="168" fill="#9DE0B8" font-family="Arial, sans-serif" font-size="24" font-weight="700">data.json</text>

  <g fill="#435F86" font-family="Arial, sans-serif" font-size="20" font-weight="700">
    <text x="122" y="232">identity_id</text>
    <text x="122" y="308">gameplay_role</text>
    <text x="122" y="384">default_condition</text>
    <text x="122" y="460">supported_conditions</text>
    <text x="122" y="536">suggested_action_ids</text>
  </g>

  <g fill="#EAF1FA" font-family="Arial, sans-serif" font-size="22" font-weight="700">
    <text x="122" y="262">"laundry_unit"</text>
    <text x="122" y="338">"maintenance_anchor"</text>
    <text x="122" y="414">"empty"</text>
    <text x="122" y="490">["empty", "loaded", "clean_cycle_done"]</text>
    <text x="122" y="566">["load", "run_cycle", "unload"]</text>
  </g>

  <rect x="120" y="594" width="324" height="18" rx="9" fill="#2E4E76"/>
  <rect x="546" y="360" width="182" height="12" rx="6" fill="#9DE0B8"/>
  <path d="M698 320L760 366L698 412" stroke="#9DE0B8" stroke-width="12" stroke-linecap="round" stroke-linejoin="round"/>

  <rect x="788" y="118" width="406" height="510" rx="24" fill="#101C30" stroke="#2D4B71"/>
  <rect x="818" y="148" width="182" height="28" rx="14" fill="#16304D"/>
  <text x="844" y="168" fill="#9DE0B8" font-family="Arial, sans-serif" font-size="24" font-weight="700">Generated Scene</text>

  <rect x="822" y="218" width="338" height="74" rx="18" fill="#16263E" stroke="#26415F"/>
  <circle cx="856" cy="255" r="11" fill="#9DE0B8"/>
  <text x="886" y="262" fill="#EAF1FA" font-family="Arial, sans-serif" font-size="28" font-weight="700">Apartment_entry_door</text>

  <rect x="822" y="316" width="338" height="74" rx="18" fill="#16263E" stroke="#26415F"/>
  <circle cx="856" cy="353" r="11" fill="#9DE0B8"/>
  <text x="886" y="360" fill="#EAF1FA" font-family="Arial, sans-serif" font-size="28" font-weight="700">Kitchen_refrigerator</text>

  <rect x="822" y="414" width="338" height="74" rx="18" fill="#1E3553" stroke="#3A618D"/>
  <circle cx="856" cy="451" r="11" fill="#9DE0B8"/>
  <text x="886" y="458" fill="#F4F8FD" font-family="Arial, sans-serif" font-size="28" font-weight="700">Laundry_unit</text>

  <rect x="822" y="512" width="338" height="74" rx="18" fill="#16263E" stroke="#26415F"/>
  <circle cx="856" cy="549" r="11" fill="#5679A5"/>
  <text x="886" y="556" fill="#AFC0D8" font-family="Arial, sans-serif" font-size="30" font-weight="700">...</text>

  <text x="88" y="702" fill="#DCE7F6" font-family="Arial, sans-serif" font-size="28" font-weight="700">Defines identity,</text>
  <text x="328" y="702" fill="#DCE7F6" font-family="Arial, sans-serif" font-size="28" font-weight="700">conditions, and actions</text>

  <defs>
    <linearGradient id="panel" x1="640" y1="34" x2="640" y2="766" gradientUnits="userSpaceOnUse">
      <stop stop-color="#102039"/>
      <stop offset="1" stop-color="#0C1628"/>
    </linearGradient>
  </defs>
</svg>
