<svg version="1.2" xmlns="http://www.w3.org/2000/svg" viewBox="0 0 1280 800" width="1280" height="800"><defs><linearGradient id="P" gradientUnits="userSpaceOnUse"/><linearGradient id="g1" x2="1" href="#P" gradientTransform="matrix(0,732,-1212,0,640,34)"><stop stop-color="#102039"/><stop offset="1" stop-color="#0c1628"/></linearGradient></defs><style>tspan{white-space:pre}.a{fill:#0b1423}.b{opacity:.18;fill:url(#g1);stroke:#9dc2ef}.c{fill:#101d32;stroke:#29476b}.d{fill:#16304d}.e{font-size: 24px;fill: #9de0b8;font-family: "Arial"}.f{font-size: 20px;fill: #435f86;font-family: "Arial"}.g{font-size: 19px;fill: #eaf1fa;font-family: "Arial"}.h{fill:#2e4e76}.i{fill:#9de0b8}.j{fill:none;stroke:#9de0b8;stroke-linecap:round;stroke-linejoin:round;stroke-width:12}.k{fill:#101c30;stroke:#2d4b71}.l{fill:#16263e;stroke:#26415f}.m{font-size: 22px;fill: #eaf1fa;font-family: "Arial"}.n{fill:#1e3553;stroke:#3a618d}.o{font-size: 22px;fill: #f4f8fd;font-family: "Arial"}.p{fill:#5679a5}.q{font-size: 26px;fill: #afc0d8;font-family: "Arial"}.r{font-size: 28px;fill: #dce7f6;font-family: "Arial"}</style><path fill-rule="evenodd" class="a" d="m36 0h1208c19.9 0 36 16.1 36 36v728c0 19.9-16.1 36-36 36h-1208c-19.9 0-36-16.1-36-36v-728c0-19.9 16.1-36 36-36z"/><path fill-rule="evenodd" class="b" d="m62 34h1156c15.5 0 28 12.5 28 28v676c0 15.5-12.5 28-28 28h-1156c-15.5 0-28-12.5-28-28v-676c0-15.5 12.5-28 28-28z"/><path fill-rule="evenodd" class="c" d="m112 118h372c13.3 0 24 10.7 24 24v462c0 13.3-10.7 24-24 24h-372c-13.3 0-24-10.7-24-24v-462c0-13.3 10.7-24 24-24z"/><path fill-rule="evenodd" class="d" d="m132 148h112c7.7 0 14 6.3 14 14 0 7.7-6.3 14-14 14h-112c-7.7 0-14-6.3-14-14 0-7.7 6.3-14 14-14z"/><text transform="translate(144,168)"><tspan x="0" y="0" class="e">data.json
</tspan></text><text transform="translate(122,232)"><tspan x="0" y="0" class="f">identity_id
</tspan></text><text transform="translate(122,308)"><tspan x="0" y="0" class="f">gameplay_role
</tspan></text><text transform="translate(122,384)"><tspan x="0" y="0" class="f">default_condition
</tspan></text><text transform="translate(122,460)"><tspan x="0" y="0" class="f">supported_conditions
</tspan></text><text transform="translate(122,536)"><tspan x="0" y="0" class="f">suggested_action_ids
</tspan></text><text transform="translate(122,262)"><tspan x="0" y="0" class="g">&quot;laundry_unit&quot;
</tspan></text><text transform="translate(122,338)"><tspan x="0" y="0" class="g">&quot;maintenance_anchor&quot;
</tspan></text><text transform="translate(122,414)"><tspan x="0" y="0" class="g">&quot;empty&quot;
</tspan></text><text transform="translate(122,490)"><tspan x="0" y="0" class="g">[&quot;empty&quot;, &quot;loaded&quot;, &quot;clean_cycle_done&quot;]
</tspan></text><text transform="translate(122,566)"><tspan x="0" y="0" class="g">[&quot;load&quot;, &quot;run_cycle&quot;, &quot;unload&quot;]
</tspan></text><path fill-rule="evenodd" class="h" d="m129 594h306c5 0 9 4 9 9 0 5-4 9-9 9h-306c-5 0-9-4-9-9 0-5 4-9 9-9z"/><path fill-rule="evenodd" class="i" d="m552 360h170c3.3 0 6 2.7 6 6 0 3.3-2.7 6-6 6h-170c-3.3 0-6-2.7-6-6 0-3.3 2.7-6 6-6z"/><path fill-rule="evenodd" class="j" d="m698 320l62 46-62 46"/><path fill-rule="evenodd" class="k" d="m812 118h358c13.3 0 24 10.7 24 24v462c0 13.3-10.7 24-24 24h-358c-13.3 0-24-10.7-24-24v-462c0-13.3 10.7-24 24-24z"/><path fill-rule="evenodd" class="d" d="m838.4 143h224.2c11.3 0 20.4 7.4 20.4 16.5 0 9.1-9.1 16.5-20.4 16.5h-224.2c-11.3 0-20.4-7.4-20.4-16.5 0-9.1 9.1-16.5 20.4-16.5z"/><text transform="translate(844,168)"><tspan x="0" y="0" class="e">Generated Scene
</tspan></text><path fill-rule="evenodd" class="l" d="m840 218h320c9.9 0 18 8.1 18 18v38c0 9.9-8.1 18-18 18h-320c-9.9 0-18-8.1-18-18v-38c0-9.9 8.1-18 18-18z"/><path fill-rule="evenodd" class="i" d="m856 266c-6.1 0-11-4.9-11-11 0-6.1 4.9-11 11-11 6.1 0 11 4.9 11 11 0 6.1-4.9 11-11 11z"/><text transform="translate(886,262)"><tspan x="0" y="0" class="m">Apartment_entry_door
</tspan></text><path fill-rule="evenodd" class="l" d="m840 316h320c9.9 0 18 8.1 18 18v38c0 9.9-8.1 18-18 18h-320c-9.9 0-18-8.1-18-18v-38c0-9.9 8.1-18 18-18z"/><path fill-rule="evenodd" class="i" d="m856 364c-6.1 0-11-4.9-11-11 0-6.1 4.9-11 11-11 6.1 0 11 4.9 11 11 0 6.1-4.9 11-11 11z"/><text transform="translate(886,360)"><tspan x="0" y="0" class="m">Kitchen_refrigerator
</tspan></text><path fill-rule="evenodd" class="n" d="m840 414h320c9.9 0 18 8.1 18 18v38c0 9.9-8.1 18-18 18h-320c-9.9 0-18-8.1-18-18v-38c0-9.9 8.1-18 18-18z"/><path fill-rule="evenodd" class="i" d="m856 462c-6.1 0-11-4.9-11-11 0-6.1 4.9-11 11-11 6.1 0 11 4.9 11 11 0 6.1-4.9 11-11 11z"/><text transform="translate(886,458)"><tspan x="0" y="0" class="o">Laundry_unit
</tspan></text><path fill-rule="evenodd" class="l" d="m840 512h320c9.9 0 18 8.1 18 18v38c0 9.9-8.1 18-18 18h-320c-9.9 0-18-8.1-18-18v-38c0-9.9 8.1-18 18-18z"/><path fill-rule="evenodd" class="p" d="m856 560c-6.1 0-11-4.9-11-11 0-6.1 4.9-11 11-11 6.1 0 11 4.9 11 11 0 6.1-4.9 11-11 11z"/><text transform="translate(886,556)"><tspan x="0" y="0" class="q">...
</tspan></text><text transform="translate(88,702)"><tspan x="0" y="0" class="r">Defines identity,</tspan><tspan  y="0" class="r"> </tspan><tspan  y="0" class="r">conditions, and actions
</tspan></text></svg>