<svg width="1280" height="800" viewBox="0 0 1280 800" fill="none" xmlns="http://www.w3.org/2000/svg">
  <rect width="1280" height="800" rx="36" fill="#0C1628"/>
  <rect x="34" y="34" width="1212" height="732" rx="28" fill="url(#bg)"/>
  <rect x="82" y="92" width="1116" height="578" rx="24" fill="#101D31" stroke="#304867"/>
  <rect x="82" y="92" width="1116" height="68" rx="24" fill="#142640"/>
  <circle cx="126" cy="126" r="9" fill="#96E2B0"/>
  <circle cx="156" cy="126" r="9" fill="#4A6A92"/>
  <circle cx="186" cy="126" r="9" fill="#4A6A92"/>
  <rect x="234" y="113" width="206" height="26" rx="13" fill="#36557D"/>
  <rect x="124" y="198" width="242" height="422" rx="18" fill="#142640"/>
  <rect x="154" y="234" width="136" height="18" rx="9" fill="#96E2B0"/>
  <rect x="154" y="274" width="168" height="14" rx="7" fill="#44658D"/>
  <rect x="154" y="304" width="132" height="14" rx="7" fill="#44658D"/>
  <rect x="154" y="334" width="182" height="14" rx="7" fill="#44658D"/>
  <rect x="154" y="394" width="160" height="18" rx="9" fill="#96E2B0"/>
  <rect x="154" y="434" width="144" height="14" rx="7" fill="#44658D"/>
  <rect x="154" y="464" width="128" height="14" rx="7" fill="#44658D"/>
  <rect x="154" y="494" width="174" height="14" rx="7" fill="#44658D"/>
  <rect x="404" y="198" width="756" height="422" rx="18" fill="#132238"/>
  <rect x="442" y="236" width="232" height="34" rx="17" fill="#1C304F"/>
  <rect x="442" y="294" width="680" height="172" rx="18" fill="#182A45"/>
  <rect x="476" y="330" width="198" height="18" rx="9" fill="#486A92"/>
  <rect x="476" y="362" width="356" height="14" rx="7" fill="#36557D"/>
  <rect x="476" y="392" width="284" height="14" rx="7" fill="#36557D"/>
  <rect x="442" y="500" width="680" height="82" rx="16" fill="#16263F"/>
  <rect x="476" y="528" width="184" height="14" rx="7" fill="#486A92"/>
  <rect x="476" y="556" width="144" height="14" rx="7" fill="#36557D"/>
  <rect x="744" y="236" width="128" height="48" rx="16" fill="#96E2B0"/>
  <text x="773" y="267" fill="#08111F" font-family="Manrope, Arial, sans-serif" font-size="22" font-weight="800">IMPORT</text>
  <rect x="890" y="236" width="110" height="48" rx="16" fill="#203654"/>
  <text x="926" y="267" fill="#DDE8F7" font-family="Manrope, Arial, sans-serif" font-size="22" font-weight="800">BUILD</text>
  <rect x="1018" y="236" width="104" height="48" rx="16" fill="#203654"/>
  <text x="1042" y="267" fill="#DDE8F7" font-family="Manrope, Arial, sans-serif" font-size="22" font-weight="800">VALIDATE</text>
  <text x="82" y="720" fill="#DDE8F7" font-family="Manrope, Arial, sans-serif" font-size="34" font-weight="700">Import, build, validate, ship the next iteration</text>
  <defs>
    <linearGradient id="bg" x1="640" y1="34" x2="640" y2="766" gradientUnits="userSpaceOnUse">
      <stop stop-color="#12233D"/>
      <stop offset="1" stop-color="#0D1829"/>
    </linearGradient>
  </defs>
</svg>
